<svg width="14" height="15" viewBox="0 0 14 15" fill="none" xmlns="http://www.w3.org/2000/svg">
<path d="M6.8 0C5.3876 0 4.03304 0.561076 3.03432 1.5598C2.0356 2.55852 1.47452 3.91307 1.47452 5.32548V8.00952C1.47463 8.12754 1.44728 8.24396 1.39464 8.34959L0.0883747 10.9614C0.0245651 11.089 -0.00556523 11.2307 0.000845449 11.3733C0.00725613 11.5158 0.0499949 11.6543 0.125003 11.7757C0.20001 11.897 0.304796 11.9972 0.429408 12.0666C0.554021 12.1361 0.694321 12.1725 0.836985 12.1725H12.763C12.9057 12.1725 13.046 12.1361 13.1706 12.0666C13.2952 11.9972 13.4 11.897 13.475 11.7757C13.55 11.6543 13.5927 11.5158 13.5992 11.3733C13.6056 11.2307 13.5754 11.089 13.5116 10.9614L12.2061 8.34959C12.1532 8.24403 12.1256 8.1276 12.1255 8.00952V5.32548C12.1255 3.91307 11.5644 2.55852 10.5657 1.5598C9.56696 0.561076 8.21241 0 6.8 0ZM6.8 14.4549C6.32782 14.4551 5.86718 14.3089 5.48158 14.0364C5.09597 13.7639 4.80438 13.3785 4.64699 12.9333H8.95302C8.79562 13.3785 8.50403 13.7639 8.11842 14.0364C7.73282 14.3089 7.27218 14.4551 6.8 14.4549Z" fill="black"/>
</svg>
